<svg width="370" height="400" xmlns="http://www.w3.org/2000/svg">
 <!-- Created with UXWing SVG Editor - https://uxwing.com/svg-icon-editor/ -->

 <g>
  <title>background</title>
  <rect x="-1" y="-1" width="372" height="402" id="canvas_background" fill="none"/>
  <g id="canvasGrid" display="none">
   <rect id="svg_1" width="100%" height="100%" x="0" y="0" stroke-width="0" fill="url(#gridpattern)"/>
  </g>
 </g>
 <g>
  <title>Layer 1</title>
  <path fill="#9be0f7" stroke="#FF0000" stroke-width="0.001" d="m71.96567,212.15052c-31.22708,9.74718 -34.11513,10.28869 -39.71074,14.25976c-5.5956,3.97108 -16.2453,12.81574 -18.59184,16.42581c-2.34655,3.61007 -5.2346,6.67862 -5.2346,14.98178c0,8.30315 9.56668,8.12265 9.56668,8.12264c0,0.00001 3.97107,-0.722 6.31762,-1.44402c2.34654,-0.72201 4.15157,-1.26352 4.15157,-1.26353c0,0.00001 -3.97107,3.42957 -4.33208,12.63524c-0.361,9.20568 5.95661,13.71826 5.95661,13.71825c0,0.00001 2.88806,3.24907 6.49813,3.61008c3.61006,0.361 10.8302,-9.02517 10.8302,-9.20567c0,-0.18051 0.1805,8.66416 3.06855,12.99624c2.88806,4.33208 5.41511,8.30315 10.2887,9.38617c4.87359,1.08302 12.27423,-11.19121 12.27422,-11.19122c0,0.00001 4.51259,-9.92767 4.51259,-9.92767c0,0 1.98554,-30.86608 3.61007,-33.93463c1.62453,-3.06856 5.5956,-16.60631 6.49812,-18.59185c0.90251,-1.98554 5.23459,-9.02517 5.4151,-9.02517c0.1805,0 -15.16229,-7.58114 -11.19121,-5.4151" id="svg_38"/>
  <path fill="#ffc61e" stroke-width="0" stroke-opacity="null" d="m225.4533,360.84188c0,-0.15873 4.38468,-1.1111 6.26383,-0.95237c1.87914,0.15873 7.2034,0.15873 11.58808,2.06347c4.38468,1.90474 7.67319,8.41259 7.82978,8.25387c-0.15659,0.15872 1.87915,3.80947 1.72256,4.60311c-0.1566,0.79365 0.15659,3.49202 0.31318,3.3333c-0.15659,0.15872 -7.98637,-6.82532 -10.6485,-8.25387c-2.66213,-1.42855 -8.76936,-1.90474 -9.39575,-1.90474c-0.62638,0 -4.07148,0.63491 -3.75829,0.79364c0.31319,0.15873 6.89021,1.74601 7.82979,2.06347c0.93957,0.31746 6.73361,5.55549 6.89021,7.61895c0.15659,2.06347 2.03574,5.07931 1.87914,7.61896c-0.15659,2.53965 -0.62639,5.55548 -0.78297,5.87294c-0.1566,0.31746 -4.38468,-9.36496 -4.85447,-9.99988c-0.46979,-0.63491 -6.73362,-6.03167 -9.70894,-5.87294c-2.97531,0.15873 -6.73361,-0.47618 -6.73361,0c0,0.47618 2.19234,7.46023 2.19234,9.52369c0,2.06347 -0.78298,8.25387 -1.56596,8.57133c-0.78298,0.31745 -2.66213,-0.79365 -2.50553,-0.95237c-0.1566,0.15872 -4.07149,-10.31734 -5.48085,-11.26971c-1.40936,-0.95237 -6.10723,-6.66658 -9.08255,-7.30149c-2.97532,-0.63492 -8.61276,-2.2222 -9.86553,-1.90474c-1.25276,0.31745 3.28851,-5.87295 3.44511,-6.03167c-0.1566,0.15872 3.6017,-1.74601 5.63745,-2.06347c2.03573,-0.31746 4.69786,0.47618 4.85446,0.31746c-0.1566,0.15872 0.93957,-6.34913 1.09617,-6.50785c-0.1566,0.15872 13.46724,-0.95238 13.62382,-1.1111c-0.15659,0.15872 -0.78297,3.65074 -0.78297,3.49201z" id="svg_99" stroke="#007f7f"/>
  <path fill="#ffc61e" stroke="#007f7f" stroke-width="0" stroke-opacity="null" d="m151.89275,363.63371c0,-0.15872 -4.44439,-1.11109 -6.34912,-0.95236c-1.90474,0.15872 -7.3015,0.15872 -11.74589,2.06346c-4.44439,1.90474 -7.77768,8.4126 -7.93641,8.25388c0.15873,0.15872 -1.90474,3.80947 -1.74601,4.60311c0.15873,0.79364 -0.15873,3.49202 -0.31746,3.3333c0.15873,0.15872 8.09514,-6.82532 10.79352,-8.25388c2.69838,-1.42855 8.88878,-1.90474 9.52369,-1.90474c0.63491,0 4.12693,0.63492 3.80948,0.79364c-0.31746,0.15873 -6.98404,1.74601 -7.93641,2.06347c-0.95237,0.31746 -6.82532,5.55549 -6.98404,7.61896c-0.15873,2.06346 -2.06347,5.0793 -1.90474,7.61895c0.15873,2.53965 0.63491,5.55549 0.79364,5.87294c0.15873,0.31746 4.44439,-9.36496 4.92057,-9.99987c0.47619,-0.63492 6.82532,-6.03168 9.84115,-5.87295c3.01584,0.15873 6.82532,-0.47618 6.82532,0c0,0.47619 -2.2222,7.46023 -2.2222,9.52369c0,2.06347 0.79364,8.25387 1.58728,8.57133c0.79364,0.31745 2.69838,-0.79364 2.53966,-0.95236c0.15872,0.15872 4.12693,-10.31734 5.55548,-11.26971c1.42856,-0.95237 6.1904,-6.66659 9.20624,-7.3015c3.01583,-0.63491 8.73005,-2.2222 9.99987,-1.90474c1.26983,0.31746 -3.33329,-5.87294 -3.49201,-6.03167c0.15872,0.15873 -3.65075,-1.74601 -5.71422,-2.06347c-2.06347,-0.31746 -4.76185,0.47619 -4.92057,0.31746c0.15872,0.15873 -0.95238,-6.34913 -1.1111,-6.50785c0.15872,0.15872 -13.65063,-0.95238 -13.80935,-1.1111c0.15872,0.15872 0.79363,3.65074 0.79363,3.49201z" id="svg_98"/>
  <path fill="#9be0f7" stroke="#FF0000" stroke-width="0.001" d="m309.64505,210.51681c0.97719,0.4886 13.19217,5.21173 14.82084,5.86319c1.62866,0.65147 17.26384,8.79479 19.05537,11.40065c1.79153,2.60586 13.84364,13.02931 14.00651,22.63843c0.16286,9.60912 -11.88925,7.98046 -12.05211,7.81759c0.16286,0.16287 -5.3746,-1.14007 -5.53746,-1.30293c0.16286,0.16286 -2.76873,-1.14007 -2.93159,-1.30293c0.16286,0.16286 6.18892,9.12051 5.86318,15.4723c-0.32573,6.35179 -5.70032,11.40065 -6.35179,11.56352c-0.65146,0.16287 -1.79153,1.4658 -1.95439,1.30293c0.16286,0.16287 -3.9088,1.9544 -5.86319,1.4658c-1.9544,-0.4886 -6.51466,-3.09446 -6.84039,-3.58306c-0.32574,-0.4886 -3.4202,-4.56026 -3.58306,-4.72313c0.16286,0.16287 -0.16287,8.46905 -0.81434,10.42345c-0.65146,1.9544 -4.72312,8.46905 -5.53745,8.95765c-0.81434,0.4886 -3.9088,3.4202 -6.35179,3.09447c-2.443,-0.32574 -7.32899,-4.07167 -7.49186,-4.23453c0.16287,0.16286 -7.00325,-10.09772 -7.16612,-10.26058c0.16287,0.16286 3.58306,-23.61563 -2.11726,-38.11074c-5.70033,-14.49511 -11.56352,-29.31596 -11.72638,-29.47882c0.16286,0.16286 13.51791,-6.02606 15.79804,-7.81759c2.28013,-1.79153 4.07166,-2.11726 3.90879,-2.28013c0.16287,0.16287 1.30293,0 1.14007,-0.16286" id="svg_80"/>
  <path fill="none" stroke="#FF0000" stroke-width="0.001" id="svg_2" d="m234.65675,75.44749c-0.66666,0 -2.61487,-0.84897 -4.66666,-1.33333c-4.58795,-1.08307 -8.6561,-1.46236 -16.00005,-2.00001c-11.98643,-0.87752 -19.33335,-1.33334 -27.33337,-1.33334c-4.66669,0 -11.33336,2.00001 -14.00003,2.00001l-2.66667,1.33334"/>
  <path fill="none" stroke="#FF0000" stroke-width="0.001" id="svg_3"/>
  <path fill="none" stroke="#FF0000" stroke-width="0.001" id="svg_4" d="m15.32302,8.11404c2,2 6.5681,4.8341 16.66669,10.66668c11.8873,6.86567 27.7239,14.66279 44.66675,21.33337c28.25021,11.1224 51.88801,19.01554 68.00013,24.00004c23.18305,7.172 36.9132,9.82683 58.66677,16.66671c18.90879,5.9454 31.18873,11.79681 43.33342,15.33336c7.91735,2.30555 18.16757,4.67078 24.66671,6.66667c13.13813,4.03475 19.21933,8.23673 27.33338,12.00002c9.21182,4.27245 14.86908,6.91507 19.33337,9.33336c4.22705,2.28979 9.56937,7.28061 16.00003,11.33334c6.30579,3.97403 10,5.33335 13.33335,7.33336l0.66668,0l0.66666,0.66666"/>
  <polyline fill="none" stroke-width="0.001" points="281.323486328125,69.44747924804688 281.323486328125,69.44747924804688 " id="svg_5" stroke-linecap="round" stroke="#FF0000"/>
  <path fill="#7dc6bb" stroke="#6cb2b0" stroke-width="3.001" d="m56.63028,62.89938c-20.00003,30.66672 -26.00005,63.33345 -22.00004,81.33348c4.00001,18.00003 5.33335,23.33338 12.00003,42.00008c6.66667,18.6667 23.33337,26.00005 22.66717,25.33384c0.6662,0.66621 21.33291,11.33289 20.6667,10.66668c0.66621,0.66621 -10.66715,30.66627 -13.33382,42.66629c-2.66667,12.00002 -1.33334,34.66673 6.00001,51.33343c7.33335,16.66669 34.66673,38.66673 59.33344,43.33341c24.66671,4.66667 80.66682,0 80.00061,-0.66621c0.66621,0.66621 32.66627,-7.33381 43.99962,-18.66716c11.33335,-11.33335 26.66672,-38.00007 26.66672,-46.00008c0,-8.00002 1.33333,-38.00007 -4.66668,-55.33344c-6.00001,-17.33336 -8.66668,-19.33337 -9.33289,-19.99958c0.66621,0.66621 29.33293,-14.00048 29.99959,-14.66715c0.66667,-0.66667 18.00004,-26.66671 24.00005,-44.66675c6.00001,-18.00003 3.33334,-51.33342 0.66667,-62.00011c-2.66668,-10.66669 -19.33337,-38.66674 -19.33337,-38.66674c0,0 8.66668,-7.33334 9.33335,-13.33335c0.66667,-6.00002 0.66667,-22.66671 0.00046,-23.33292c0.66621,0.66621 -8.66714,5.33288 -9.33335,4.66668c0.66621,0.6662 1.99954,-8.66715 -0.00046,-12.00049c-2.00001,-3.33334 -4.00001,-6.00001 -4.66622,-6.66621c0.66621,0.6662 -2.66713,12.66622 -12.66715,15.99956c-10.00002,3.33334 -16.00003,6.66668 -16.66623,6.00048c0.6662,0.6662 -31.33385,-11.33382 -46.00055,-12.66716c-14.66669,-1.33333 -48.00009,3.33334 -48.66629,2.66714c0.6662,0.6662 -18.0005,-6.66714 -49.33389,-0.66713c-31.33339,6.00001 -42.66674,13.33336 -43.33294,12.66715c0.6662,0.66621 -26.66719,-4.66714 -30.66719,-8.66714c-4.00001,-4.00001 -8.66669,-10.00002 -9.33289,-10.66623c0.6662,0.66621 -2.00047,3.33288 -1.3338,7.33289c0.66667,4 2.66667,8.00001 2.00047,7.33381c0.6662,0.6662 -12.66715,0.6662 -13.33336,0c0.66621,0.6662 -2.00047,9.99955 3.99955,21.3329" id="svg_17"/>
  <ellipse fill="#ffffff" stroke-width="0" cx="120.418352" cy="142.82857" id="svg_18" rx="65.000119" ry="66.333455" stroke="#FF0000"/>
  <ellipse fill="#ffffff" stroke-width="0" cx="246.130459" cy="146.340728" id="svg_19" rx="65.000119" ry="66.333455" stroke="#FF0000"/>
  <ellipse fill="#afdb7d" stroke-width="0" stroke-opacity="null" cx="119.989875" cy="155.114302" id="svg_20" rx="32.000058" ry="33.00006" stroke="#FF0000"/>
  <ellipse fill="#000000" stroke-width="0" stroke-opacity="null" cx="119.323206" cy="155.447636" id="svg_21" rx="22.666707" ry="23.333376" stroke="#FF0000"/>
  <ellipse fill="#ffffff" stroke="#FF0000" stroke-width="0" stroke-opacity="null" cx="107.65652" cy="153.114299" id="svg_22" rx="4.333341" ry="5.000009"/>
  <ellipse fill="#ffffff" stroke="#FF0000" stroke-width="0" stroke-opacity="null" cx="132.323232" cy="159.11431" id="svg_23" rx="4.333341" ry="5.000009"/>
  <ellipse fill="#afdb7d" stroke-width="0" stroke-opacity="null" cx="251.323448" cy="152.447631" id="svg_24" rx="32.000058" ry="33.00006" stroke="#FF0000"/>
  <ellipse fill="#000000" stroke-width="0" stroke-opacity="null" cx="250.656779" cy="152.780965" id="svg_25" rx="22.666707" ry="23.333376" stroke="#FF0000"/>
  <ellipse fill="#ffffff" stroke="#FF0000" stroke-width="0" stroke-opacity="null" cx="238.990092" cy="155.78097" id="svg_26" rx="4.333341" ry="5.000009"/>
  <ellipse fill="#ffffff" stroke="#FF0000" stroke-width="0" stroke-opacity="null" cx="262.990136" cy="149.780959" id="svg_27" rx="4.333341" ry="5.000009"/>
  <path fill="#ffb821" stroke-width="0" d="m183.9264,143.9355c0.8506,0.96579 -5.65581,4.33211 -6.37783,5.05413c-0.72201,0.72201 -7.58119,6.6185 -8.30321,8.18287c-0.72201,1.56437 -3.73042,5.41514 -3.61009,7.09985c0.12034,1.6847 -0.12033,2.40672 0.12034,3.48975c0.24067,1.08303 16.60642,26.11299 16.60641,26.11299c0.00001,0 1.44404,2.28639 1.44404,2.28639c0,0 0.84236,0.9627 1.80505,1.3237c0.96269,0.36101 2.28639,-0.24067 2.28639,-0.24067c0,0 1.20336,-1.56437 1.20336,-1.56438c0,0.00001 1.44404,-2.64739 1.44404,-2.6474c0,0.00001 13.71835,-25.63164 13.71834,-25.63164c0.00001,0 0.9627,-1.80504 0.48135,-4.09143c-0.48134,-2.2864 -4.33211,-6.85918 -4.33211,-6.85918c0,0 -4.93379,-4.21177 -4.93379,-4.21178c0,0.00001 -5.89648,-4.09143 -6.25749,-4.45244" id="svg_29"/>
  <path fill="#ffffff" stroke-width="0" d="m186.81447,153.92342c0,0 3.73043,3.61009 3.73042,3.61008c0.00001,0.00001 2.76775,2.64741 3.24909,3.97111c0.48134,1.3237 0.84236,7.82186 0.24067,8.90489c-0.60168,1.08303 -1.68471,3.9711 -1.68471,3.97109c0,0.00001 -1.44403,-3.85075 -1.44403,-4.81345c0,-0.96269 -3.61009,-11.07094 -3.61009,-11.19128c0,-0.12033 -0.48134,-4.45244 -0.48134,-4.45244l-0.00001,0z" id="svg_30"/>
  <path fill="#822e05" stroke="#FF0000" stroke-width="0.001" stroke-opacity="null" d="m53.42098,224.95718c0,0 0,2.70755 1.80504,5.4151c1.80503,2.70755 5.5956,4.33208 5.5956,4.33207c0,0.00001 -7.22013,-0.361 -7.94215,-1.98553c-0.72201,-1.62453 -0.90251,-2.52704 -0.90251,-3.61007" id="svg_39"/>
  <path fill="#822e05" stroke="#FF0000" stroke-width="0.001" stroke-opacity="null" d="m66.95874,224.41567c0,0 0,2.70755 1.80503,5.4151c1.80503,2.70755 5.5956,4.33208 5.5956,4.33207c0,0.00001 -7.22013,-0.361 -7.94214,-1.98553c-0.72202,-1.62453 -0.90252,-2.52704 -0.90252,-3.61006" id="svg_40"/>
  <path fill="#822e05" stroke="#FF0000" stroke-width="0.001" stroke-opacity="null" d="m37.71719,230.27513c0,0 0,2.70755 1.80503,5.41509c1.80503,2.70756 5.5956,4.33209 5.5956,4.33207c0,0.00001 -7.22013,-0.361 -7.94214,-1.98552c-0.72202,-1.62453 -0.90252,-2.52704 -0.90252,-3.61006" id="svg_41"/>
  <path fill="#822e05" stroke="#FF0000" stroke-width="0.001" stroke-opacity="null" d="m22.1939,241.46633c0,0 0,2.70755 1.80503,5.4151c1.80503,2.70755 5.5956,4.33208 5.5956,4.33207c0,0.00001 -7.22013,-0.361 -7.94214,-1.98553c-0.72202,-1.62453 -0.90252,-2.52704 -0.90252,-3.61006" id="svg_42"/>
  <path fill="#822e05" stroke="#FF0000" stroke-width="0.001" stroke-opacity="null" d="m35.55115,243.81288c0,0 0,2.70755 1.80503,5.4151c1.80503,2.70755 5.5956,4.33208 5.5956,4.33207c0,0.00001 -7.22013,-0.361 -7.94214,-1.98553c-0.72202,-1.62453 -0.90252,-2.52704 -0.90252,-3.61006" id="svg_43"/>
  <path fill="#822e05" stroke="#FF0000" stroke-width="0.001" stroke-opacity="null" d="m53.60149,238.49493c0,0 0,2.70755 1.80503,5.4151c1.80503,2.70755 5.5956,4.33208 5.5956,4.33207c0,0.00001 -7.22013,-0.361 -7.94214,-1.98553c-0.72202,-1.62453 -0.90252,-2.52704 -0.90252,-3.61006" id="svg_44"/>
  <path fill="#822e05" stroke="#FF0000" stroke-width="0.001" stroke-opacity="null" d="m67.13924,239.75846c0,0 0,2.70755 1.80503,5.4151c1.80503,2.70755 5.5956,4.33208 5.5956,4.33207c0,0 -7.22013,-0.361 -7.94214,-1.98553c-0.72202,-1.62453 -0.90252,-2.52704 -0.90252,-3.61006" id="svg_45"/>
  <path fill="#822e05" stroke="#FF0000" stroke-width="0.001" stroke-opacity="null" d="m48.7279,253.65721c0,0 0,2.70755 1.80503,5.4151c1.80503,2.70755 5.5956,4.33208 5.5956,4.33207c0,0.00001 -7.22013,-0.361 -7.94214,-1.98553c-0.72202,-1.62453 -0.90252,-2.52704 -0.90252,-3.61006" id="svg_46"/>
  <path fill="#822e05" stroke="#FF0000" stroke-width="0.001" stroke-opacity="null" d="m62.08515,251.31067c0,0 0,2.70755 1.80503,5.4151c1.80503,2.70755 5.5956,4.33208 5.5956,4.33207c0,0.00001 -7.22013,-0.361 -7.94214,-1.98553c-0.72202,-1.62453 -0.90252,-2.52704 -0.90252,-3.61006" id="svg_47"/>
  <path fill="#822e05" stroke="#FF0000" stroke-width="0.001" stroke-opacity="null" d="m61.90464,267.01446c0,0 0,2.70755 1.80503,5.4151c1.80503,2.70755 5.5956,4.33208 5.5956,4.33207c0,0.00001 -7.22013,-0.361 -7.94214,-1.98553c-0.72202,-1.62453 -0.90252,-2.52704 -0.90252,-3.61006" id="svg_48"/>
  <path fill="#822e05" stroke="#FF0000" stroke-width="0.001" stroke-opacity="null" d="m49.0889,270.08302c0,0 0,2.70755 1.80503,5.4151c1.80504,2.70755 5.59561,4.33208 5.59561,4.33207c0,0.00001 -7.22013,-0.361 -7.94214,-1.98553c-0.72202,-1.62453 -0.90252,-2.52704 -0.90252,-3.61006" id="svg_49"/>
  <path fill="#822e05" stroke="#FF0000" stroke-width="0.001" stroke-opacity="null" d="m32.8436,257.26728c0,0 0,2.70755 1.80503,5.4151c1.80503,2.70755 5.5956,4.33208 5.5956,4.33207c0,0.00001 -7.22013,-0.361 -7.94214,-1.98553c-0.72202,-1.62453 -0.90252,-2.52704 -0.90252,-3.61006" id="svg_50"/>
  <path fill="none" stroke="#FF0000" stroke-width="0.001" stroke-opacity="null" fill-opacity="null" id="svg_56" d="m326.5134,232.31397c0,0.31201 0.22486,0.54657 0.93604,1.24805c1.26633,1.24908 2.22812,2.19977 3.58807,2.96405c0.73239,0.41159 2.14481,1.16473 2.96409,1.56006c1.2004,0.57925 2.07641,0.83264 2.49606,1.09201c0.18768,0.11599 0.31201,0.31201 0.46802,0.31201l0.156,0"/>
  <path fill="none" stroke="#FF0000" stroke-width="0.001" stroke-opacity="null" fill-opacity="null" id="svg_57" d="m327.60545,233.25001c0,0.156 0.09631,0.16787 0.156,0.31201c0.08444,0.20383 0.44953,0.3417 0.93601,0.62399c0.60342,0.35019 1.26257,0.59232 2.65207,1.24805c0.94641,0.44665 2.06164,0.79855 2.96408,1.09201c1.32693,0.43152 2.00064,1.00604 3.12005,1.40405c1.07013,0.38046 1.97309,0.7757 2.65207,0.93601c0.30365,0.07168 0.78003,0.31201 0.93604,0.31201l0.31201,0l0,0.156l0.156,0"/>
  <path fill="none" stroke="#FF0000" stroke-width="0.001" stroke-opacity="null" fill-opacity="null" id="svg_59" d="m333.37071,235.74607c0.46802,0.31201 1.15213,1.30606 1.56006,1.87204c1.41901,1.96875 3.65976,3.53366 6.08414,5.46011c1.66128,1.32007 3.67694,2.51358 5.92813,4.05613c1.46728,1.0054 2.90359,2.11642 5.14813,3.58807c0.76071,0.49875 1.40402,0.93601 1.87204,1.24802l0.15601,0.156l0.156,0"/>
  <path fill="#7dc6bb" stroke="#FF0000" stroke-width="0.001" stroke-opacity="null" fill-opacity="null" opacity="0.5" d="m353.57303,227.75306c-0.78681,0.78682 -1.34414,1.21301 -1.37692,1.18023c0.03278,0.03278 -1.47529,1.08187 -2.32767,1.08187" id="svg_63"/>
  <path fill="#822e05" stroke="#FF0000" stroke-width="0.001" d="m310.21663,224.98934c0,-0.03278 -0.22949,1.04909 -0.49176,1.31136c-0.26227,0.26227 -0.91795,1.08187 -1.18023,1.18023c-0.26227,0.09835 -1.67198,0.98352 -1.90147,1.04908c-0.22949,0.06557 -2.4588,0.45898 -2.65551,0.45898c-0.1967,0 -0.1967,0.29506 -0.22948,0.26228c0.03278,0.03278 0.42619,0.29505 1.24579,0.36062c0.8196,0.06557 2.55715,0.55733 4.49141,-0.03279c1.93426,-0.59011 3.0817,-2.39323 3.2784,-3.11448c0.19671,-0.72125 0.16392,-2.2621 -0.16392,-2.78664c-0.32784,-0.52454 -0.16392,-0.29506 -0.36062,-0.55733c-0.19671,-0.26227 -1.57363,-2.58994 -1.60641,-2.62272c0.03278,0.03278 -0.03279,1.47528 -0.09836,2.19653" id="svg_64"/>
  <path fill="#822e05" stroke="#FF0000" stroke-width="0.001" d="m326.72456,231.33855c0,-0.03278 -0.22948,1.04909 -0.49176,1.31136c-0.26227,0.26227 -0.91795,1.08187 -1.18022,1.18022c-0.26227,0.09836 -1.67199,0.98353 -1.90147,1.04909c-0.22949,0.06557 -2.45881,0.45898 -2.65551,0.45898c-0.1967,0 -0.1967,0.29506 -0.22948,0.26228c0.03278,0.03278 0.42618,0.29505 1.24578,0.36062c0.8196,0.06556 2.55716,0.55732 4.49141,-0.03279c1.93426,-0.59011 3.0817,-2.39323 3.27841,-3.11448c0.1967,-0.72125 0.16392,-2.2621 -0.16392,-2.78664c-0.32784,-0.52455 -0.16392,-0.29506 -0.36063,-0.55733c-0.1967,-0.26227 -1.57363,-2.58994 -1.60641,-2.62272c0.03278,0.03278 -0.03279,1.47528 -0.09836,2.19653" id="svg_66"/>
  <path fill="#822e05" stroke="#FF0000" stroke-width="0.001" d="m341.6452,241.49728c0,-0.03278 -0.22948,1.04909 -0.49176,1.31136c-0.26227,0.26227 -0.91795,1.08187 -1.18022,1.18022c-0.26227,0.09836 -1.67199,0.98353 -1.90147,1.04909c-0.22949,0.06557 -2.45881,0.45898 -2.65551,0.45898c-0.1967,0 -0.1967,0.29506 -0.22948,0.26228c0.03278,0.03278 0.42618,0.29505 1.24578,0.36062c0.8196,0.06556 2.55716,0.55732 4.49141,-0.03279c1.93426,-0.59011 3.0817,-2.39323 3.27841,-3.11448c0.1967,-0.72125 0.16392,-2.2621 -0.16392,-2.78664c-0.32784,-0.52455 -0.16392,-0.29506 -0.36063,-0.55733c-0.1967,-0.26227 -1.57363,-2.58994 -1.60641,-2.62272c0.03278,0.03278 -0.03279,1.47528 -0.09836,2.19653" id="svg_67"/>
  <path fill="#822e05" stroke="#FF0000" stroke-width="0.001" d="m328.62932,244.03696c0,-0.03278 -0.22948,1.04909 -0.49176,1.31136c-0.26227,0.26227 -0.91795,1.08187 -1.18022,1.18022c-0.26227,0.09836 -1.67199,0.98353 -1.90147,1.04909c-0.22949,0.06557 -2.45881,0.45898 -2.65551,0.45898c-0.1967,0 -0.1967,0.29506 -0.22948,0.26228c0.03278,0.03278 0.42618,0.29505 1.24578,0.36062c0.8196,0.06556 2.55716,0.55732 4.49141,-0.03279c1.93426,-0.59011 3.0817,-2.39323 3.27841,-3.11448c0.1967,-0.72125 0.16392,-2.2621 -0.16392,-2.78664c-0.32784,-0.52455 -0.16392,-0.29506 -0.36063,-0.55733c-0.1967,-0.26227 -1.57363,-2.58994 -1.60641,-2.62272c0.03278,0.03278 -0.03279,1.47528 -0.09836,2.19653" id="svg_68"/>
  <path fill="#822e05" stroke="#FF0000" stroke-width="0.001" d="m315.93091,254.83061c0,-0.03278 -0.22948,1.04909 -0.49176,1.31136c-0.26227,0.26227 -0.91795,1.08187 -1.18022,1.18022c-0.26227,0.09836 -1.67199,0.98353 -1.90147,1.04909c-0.22949,0.06557 -2.45881,0.45898 -2.65551,0.45898c-0.1967,0 -0.1967,0.29506 -0.22948,0.26228c0.03278,0.03278 0.42618,0.29505 1.24578,0.36062c0.8196,0.06556 2.55716,0.55732 4.49141,-0.03279c1.93426,-0.59011 3.0817,-2.39323 3.27841,-3.11448c0.1967,-0.72125 0.16392,-2.2621 -0.16392,-2.78664c-0.32784,-0.52455 -0.16392,-0.29506 -0.36063,-0.55733c-0.1967,-0.26227 -1.57363,-2.58994 -1.60641,-2.62272c0.03278,0.03278 -0.03279,1.47528 -0.09836,2.19653" id="svg_69"/>
  <path fill="#822e05" stroke="#FF0000" stroke-width="0.001" d="m331.80393,257.05283c0,-0.03278 -0.22948,1.04909 -0.49176,1.31136c-0.26227,0.26227 -0.91795,1.08187 -1.18022,1.18022c-0.26227,0.09836 -1.67199,0.98353 -1.90147,1.04909c-0.22949,0.06557 -2.45881,0.45898 -2.65551,0.45898c-0.1967,0 -0.1967,0.29506 -0.22948,0.26228c0.03278,0.03278 0.42618,0.29505 1.24578,0.36062c0.8196,0.06556 2.55716,0.55732 4.49141,-0.03279c1.93426,-0.59011 3.0817,-2.39323 3.27841,-3.11448c0.1967,-0.72125 0.16392,-2.2621 -0.16392,-2.78664c-0.32784,-0.52455 -0.16392,-0.29506 -0.36063,-0.55733c-0.1967,-0.26227 -1.57363,-2.58994 -1.60641,-2.62272c0.03278,0.03278 -0.03279,1.47528 -0.09836,2.19653" id="svg_70"/>
  <path fill="#822e05" stroke="#FF0000" stroke-width="0.001" d="m315.93092,271.33855c0,-0.03278 -0.22948,1.04909 -0.49176,1.31136c-0.26227,0.26227 -0.91795,1.08187 -1.18022,1.18022c-0.26227,0.09836 -1.67199,0.98353 -1.90148,1.04909c-0.22949,0.06557 -2.45881,0.45898 -2.65551,0.45898c-0.1967,0 -0.1967,0.29506 -0.22948,0.26228c0.03278,0.03278 0.42618,0.29505 1.24578,0.36062c0.8196,0.06556 2.55717,0.55732 4.49141,-0.03279c1.93426,-0.59011 3.0817,-2.39323 3.27841,-3.11448c0.19671,-0.72125 0.16392,-2.2621 -0.16392,-2.78664c-0.32784,-0.52455 -0.16392,-0.29506 -0.36063,-0.55733c-0.1967,-0.26227 -1.57363,-2.58994 -1.60641,-2.62272c0.03278,0.03278 -0.03279,1.47528 -0.09836,2.19653" id="svg_71"/>
  <path fill="#822e05" stroke="#FF0000" stroke-width="0.001" d="m302.59758,268.16394c0,-0.03278 -0.22948,1.04909 -0.49176,1.31136c-0.26227,0.26227 -0.91795,1.08187 -1.18022,1.18022c-0.26227,0.09836 -1.67199,0.98353 -1.90147,1.04909c-0.22949,0.06557 -2.45881,0.45898 -2.65551,0.45898c-0.1967,0 -0.1967,0.29506 -0.22948,0.26228c0.03278,0.03278 0.42618,0.29505 1.24578,0.36062c0.8196,0.06556 2.55716,0.55732 4.49141,-0.03279c1.93426,-0.59011 3.0817,-2.39323 3.27841,-3.11448c0.1967,-0.72125 0.16392,-2.2621 -0.16392,-2.78664c-0.32784,-0.52455 -0.16392,-0.29506 -0.36063,-0.55733c-0.1967,-0.26227 -1.57363,-2.58994 -1.60641,-2.62272c0.03278,0.03278 -0.03279,1.47528 -0.09836,2.19653" id="svg_72"/>
  <path fill="#822e05" stroke="#FF0000" stroke-width="0.001" d="m302.91504,253.56077c0,-0.03278 -0.22948,1.04909 -0.49176,1.31136c-0.26227,0.26227 -0.91795,1.08187 -1.18022,1.18022c-0.26227,0.09836 -1.67199,0.98353 -1.90147,1.04909c-0.22949,0.06557 -2.45881,0.45898 -2.65551,0.45898c-0.1967,0 -0.1967,0.29506 -0.22948,0.26228c0.03278,0.03278 0.42618,0.29505 1.24578,0.36062c0.8196,0.06556 2.55716,0.55732 4.49141,-0.03279c1.93426,-0.59011 3.0817,-2.39323 3.27841,-3.11448c0.1967,-0.72125 0.16392,-2.2621 -0.16392,-2.78664c-0.32784,-0.52455 -0.16392,-0.29506 -0.36063,-0.55733c-0.1967,-0.26227 -1.57363,-2.58994 -1.60641,-2.62272c0.03278,0.03278 -0.03279,1.47528 -0.09836,2.19653" id="svg_73"/>
  <path fill="#822e05" stroke="#FF0000" stroke-width="0.001" d="m310.21663,239.90998c0,-0.03278 -0.22948,1.04909 -0.49176,1.31136c-0.26227,0.26227 -0.91795,1.08187 -1.18022,1.18022c-0.26227,0.09836 -1.67199,0.98353 -1.90147,1.04909c-0.22949,0.06557 -2.45881,0.45898 -2.65551,0.45898c-0.1967,0 -0.1967,0.29506 -0.22948,0.26228c0.03278,0.03278 0.42618,0.29505 1.24578,0.36062c0.8196,0.06556 2.55716,0.55732 4.49141,-0.03279c1.93426,-0.59011 3.0817,-2.39323 3.27841,-3.11448c0.1967,-0.72125 0.16392,-2.2621 -0.16392,-2.78664c-0.32784,-0.52455 -0.16392,-0.29506 -0.36063,-0.55733c-0.1967,-0.26227 -1.57363,-2.58994 -1.60641,-2.62272c0.03278,0.03278 -0.03279,1.47528 -0.09836,2.19653" id="svg_74"/>
  <path fill="#822e05" stroke="#FF0000" stroke-width="0.001" d="m297.83568,241.49728c0,-0.03278 -0.22948,1.04909 -0.49176,1.31136c-0.26227,0.26227 -0.91795,1.08187 -1.18022,1.18022c-0.26227,0.09836 -1.67199,0.98353 -1.90147,1.04909c-0.22949,0.06557 -2.45881,0.45898 -2.65551,0.45898c-0.1967,0 -0.1967,0.29506 -0.22948,0.26228c0.03278,0.03278 0.42618,0.29505 1.24578,0.36062c0.8196,0.06556 2.55716,0.55732 4.49141,-0.03279c1.93426,-0.59011 3.0817,-2.39323 3.27841,-3.11448c0.1967,-0.72125 0.16392,-2.2621 -0.16392,-2.78664c-0.32784,-0.52455 -0.16392,-0.29506 -0.36063,-0.55733c-0.1967,-0.26227 -1.57363,-2.58994 -1.60641,-2.62272c0.03278,0.03278 -0.03279,1.47528 -0.09836,2.19653" id="svg_75"/>
  <path fill="#822e05" stroke="#FF0000" stroke-width="0.001" d="m296.24838,225.62426c0,-0.03278 -0.22948,1.04909 -0.49176,1.31136c-0.26227,0.26227 -0.91795,1.08187 -1.18022,1.18022c-0.26227,0.09836 -1.67199,0.98353 -1.90147,1.04909c-0.22949,0.06557 -2.45881,0.45898 -2.65551,0.45898c-0.1967,0 -0.1967,0.29506 -0.22948,0.26228c0.03278,0.03278 0.42618,0.29505 1.24578,0.36062c0.8196,0.06556 2.55716,0.55732 4.49141,-0.03279c1.93426,-0.59011 3.0817,-2.39323 3.27841,-3.11448c0.1967,-0.72125 0.16392,-2.2621 -0.16392,-2.78664c-0.32784,-0.52455 -0.16392,-0.29506 -0.36063,-0.55733c-0.1967,-0.26227 -1.57363,-2.58994 -1.60641,-2.62272c0.03278,0.03278 -0.03279,1.47528 -0.09836,2.19653" id="svg_76"/>
  <path fill="#a7e6ef" stroke="#FF0000" stroke-width="0.001" stroke-opacity="null" d="m148.94885,269.65542c0.48883,0.06984 4.53908,1.7458 6.56421,2.1648c2.02512,0.41899 7.61169,1.5363 12.43009,0.69832c4.81841,-0.83799 9.00833,-1.9553 10.68429,-3.21228c1.67597,-1.25697 2.30446,-1.81563 2.30446,-1.88546c0,-0.06983 -1.25698,4.46925 -3.21227,6.7737c-1.9553,2.30446 -5.79606,5.0279 -7.05303,5.16757c-1.25698,0.13966 -2.93294,0.76815 -6.00555,0.62849c-3.07261,-0.13967 -5.4469,-0.62849 -9.00833,-2.58379c-3.56143,-1.95529 -7.19269,-7.82118 -6.70387,-7.75135z" id="svg_82"/>
  <path fill="#a7e6ef" stroke="#FF0000" stroke-width="0.001" stroke-opacity="null" d="m173.93447,251.88243c0.48883,0.06984 4.53909,1.7458 6.56421,2.1648c2.02513,0.41899 7.6117,1.5363 12.4301,0.69832c4.81841,-0.83799 9.00832,-1.9553 10.68429,-3.21228c1.67597,-1.25697 2.30446,-1.81563 2.30446,-1.88546c0,-0.06983 -1.25698,4.46925 -3.21227,6.7737c-1.95531,2.30446 -5.79606,5.0279 -7.05303,5.16757c-1.25698,0.13966 -2.93294,0.76815 -6.00555,0.62849c-3.07261,-0.13967 -5.4469,-0.62849 -9.00833,-2.58379c-3.56143,-1.95529 -7.19269,-7.82118 -6.70387,-7.75135l-0.00001,0z" id="svg_83"/>
  <path fill="#a7e6ef" stroke="#FF0000" stroke-width="0.001" stroke-opacity="null" d="m222.28216,249.65542c0.48883,0.06984 4.53908,1.7458 6.56421,2.1648c2.02513,0.41899 7.61169,1.5363 12.43009,0.69832c4.81841,-0.83799 9.00833,-1.9553 10.68429,-3.21228c1.67597,-1.25697 2.30446,-1.81563 2.30446,-1.88546c0,-0.06983 -1.25698,4.46925 -3.21227,6.7737c-1.9553,2.30446 -5.79606,5.0279 -7.05303,5.16757c-1.25698,0.13966 -2.93294,0.76815 -6.00555,0.62849c-3.07261,-0.13967 -5.4469,-0.62849 -9.00833,-2.58379c-3.56143,-1.95529 -7.19269,-7.82118 -6.70387,-7.75135z" id="svg_84"/>
  <path fill="#a7e6ef" stroke="#FF0000" stroke-width="0.001" stroke-opacity="null" d="m195.6155,269.23875c0.48883,0.06984 4.53908,1.7458 6.56421,2.1648c2.02513,0.41899 7.61169,1.5363 12.43009,0.69832c4.81841,-0.83799 9.00833,-1.9553 10.68429,-3.21228c1.67597,-1.25697 2.30446,-1.81563 2.30446,-1.88546c0,-0.06983 -1.25698,4.46925 -3.21227,6.7737c-1.9553,2.30446 -5.79606,5.0279 -7.05303,5.16757c-1.25698,0.13966 -2.93294,0.76815 -6.00555,0.62849c-3.07261,-0.13967 -5.4469,-0.62849 -9.00833,-2.58379c-3.56143,-1.95529 -7.19269,-7.82118 -6.70387,-7.75135z" id="svg_85"/>
  <path fill="#a7e6ef" stroke="#FF0000" stroke-width="0.001" stroke-opacity="null" d="m239.78216,270.48875c0.48883,0.06984 4.53908,1.7458 6.56421,2.1648c2.02513,0.41899 7.61169,1.5363 12.43009,0.69832c4.81841,-0.83799 9.00833,-1.9553 10.68429,-3.21228c1.67597,-1.25697 2.30446,-1.81563 2.30446,-1.88546c0,-0.06983 -1.25698,4.46925 -3.21227,6.7737c-1.9553,2.30446 -5.79606,5.0279 -7.05303,5.16757c-1.25698,0.13966 -2.93294,0.76815 -6.00555,0.62849c-3.07261,-0.13967 -5.4469,-0.62849 -9.00833,-2.58379c-3.56143,-1.95529 -7.19269,-7.82118 -6.70387,-7.75135z" id="svg_86"/>
  <path fill="#a7e6ef" stroke="#FF0000" stroke-width="0.001" stroke-opacity="null" d="m124.78218,250.07209c0.48884,0.06984 4.53909,1.7458 6.56422,2.1648c2.02512,0.41899 7.61169,1.5363 12.43009,0.69832c4.81841,-0.83799 9.00833,-1.9553 10.68429,-3.21228c1.67597,-1.25697 2.30446,-1.81563 2.30446,-1.88546c0,-0.06983 -1.25698,4.46925 -3.21227,6.7737c-1.9553,2.30446 -5.79606,5.0279 -7.05303,5.16757c-1.25698,0.13966 -2.93294,0.76815 -6.00555,0.62849c-3.07261,-0.13967 -5.4469,-0.62849 -9.00833,-2.58379c-3.56143,-1.95529 -7.19269,-7.82118 -6.70387,-7.75135l-0.00001,0z" id="svg_87"/>
  <path fill="#a7e6ef" stroke="#FF0000" stroke-width="0.001" stroke-opacity="null" d="m95.61552,269.65542c0.48883,0.06984 4.53909,1.7458 6.56421,2.1648c2.02513,0.41899 7.6117,1.5363 12.4301,0.69832c4.81841,-0.83799 9.00833,-1.9553 10.68429,-3.21228c1.67597,-1.25697 2.30446,-1.81563 2.30446,-1.88546c0,-0.06983 -1.25698,4.46925 -3.21227,6.7737c-1.9553,2.30446 -5.79606,5.0279 -7.05303,5.16757c-1.25698,0.13966 -2.93294,0.76815 -6.00555,0.62849c-3.07261,-0.13967 -5.4469,-0.62849 -9.00833,-2.58379c-3.56143,-1.95529 -7.19269,-7.82118 -6.70387,-7.75135l-0.00001,0z" id="svg_88"/>
  <path fill="#a7e6ef" stroke="#FF0000" stroke-width="0.001" stroke-opacity="null" d="m116.44885,290.48875c0.48883,0.06984 4.53908,1.7458 6.56421,2.1648c2.02513,0.41899 7.61169,1.5363 12.43009,0.69832c4.81841,-0.83799 9.00833,-1.9553 10.68429,-3.21228c1.67597,-1.25697 2.30446,-1.81563 2.30446,-1.88546c0,-0.06983 -1.25698,4.46925 -3.21227,6.7737c-1.9553,2.30446 -5.79606,5.0279 -7.05303,5.16757c-1.25698,0.13966 -2.93294,0.76815 -6.00555,0.62849c-3.07261,-0.13967 -5.4469,-0.62849 -9.00833,-2.58379c-3.56143,-1.95529 -7.19269,-7.82118 -6.70387,-7.75135z" id="svg_89"/>
  <path fill="#a7e6ef" stroke="#FF0000" stroke-width="0.001" stroke-opacity="null" d="m167.28217,296.32208c0.48883,0.06984 4.53908,1.7458 6.56421,2.1648c2.02513,0.41899 7.61169,1.5363 12.43009,0.69832c4.81841,-0.83799 9.00833,-1.9553 10.68429,-3.21228c1.67597,-1.25697 2.30446,-1.81563 2.30446,-1.88546c0,-0.06983 -1.25698,4.46925 -3.21227,6.7737c-1.9553,2.30446 -5.79606,5.0279 -7.05303,5.16757c-1.25698,0.13966 -2.93294,0.76815 -6.00555,0.62849c-3.07261,-0.13967 -5.4469,-0.62849 -9.00833,-2.58379c-3.56143,-1.95529 -7.19269,-7.82118 -6.70387,-7.75135z" id="svg_90"/>
  <path fill="#a7e6ef" stroke="#FF0000" stroke-width="0.001" stroke-opacity="null" d="m202.69883,312.98874c0.48883,0.06984 4.53908,1.7458 6.56421,2.16481c2.02513,0.41899 7.61169,1.53629 12.43009,0.69832c4.81841,-0.83799 9.00833,-1.9553 10.68429,-3.21228c1.67597,-1.25698 2.30446,-1.81563 2.30446,-1.88547c0,-0.06983 -1.25698,4.46925 -3.21227,6.77371c-1.9553,2.30446 -5.79606,5.02789 -7.05303,5.16757c-1.25698,0.13966 -2.93294,0.76815 -6.00555,0.62849c-3.07261,-0.13968 -5.4469,-0.62849 -9.00833,-2.5838c-3.56143,-1.95528 -7.19269,-7.82118 -6.70387,-7.75135z" id="svg_91"/>
  <path fill="#a7e6ef" stroke="#FF0000" stroke-width="0.001" stroke-opacity="null" d="m217.28217,291.73875c0.48883,0.06984 4.53908,1.7458 6.56421,2.1648c2.02513,0.41899 7.61169,1.5363 12.43009,0.69832c4.81841,-0.83799 9.00833,-1.9553 10.68429,-3.21228c1.67597,-1.25697 2.30446,-1.81563 2.30446,-1.88546c0,-0.06983 -1.25698,4.46925 -3.21227,6.7737c-1.9553,2.30446 -5.79606,5.0279 -7.05303,5.16757c-1.25698,0.13966 -2.93294,0.76815 -6.00555,0.62849c-3.07261,-0.13967 -5.4469,-0.62849 -9.00833,-2.58379c-3.56143,-1.95529 -7.19269,-7.82118 -6.70387,-7.75135z" id="svg_92"/>
  <path fill="#a7e6ef" stroke="#FF0000" stroke-width="0.001" stroke-opacity="null" d="m135.61551,313.82208c0.48883,0.06984 4.53909,1.7458 6.56421,2.1648c2.02513,0.41899 7.6117,1.5363 12.43009,0.69832c4.81841,-0.83799 9.00833,-1.9553 10.6843,-3.21228c1.67597,-1.25697 2.30446,-1.81563 2.30446,-1.88546c0,-0.06983 -1.25698,4.46925 -3.21227,6.7737c-1.9553,2.30446 -5.79606,5.0279 -7.05303,5.16757c-1.25698,0.13966 -2.93294,0.76815 -6.00555,0.62849c-3.07261,-0.13967 -5.4469,-0.62849 -9.00833,-2.58379c-3.56143,-1.95529 -7.19269,-7.82118 -6.70387,-7.75135l-0.00001,0z" id="svg_93"/>
  <path fill="#a7e6ef" stroke="#FF0000" stroke-width="0.001" stroke-opacity="null" d="m170.19884,330.48874c0.48883,0.06984 4.53908,1.7458 6.56421,2.1648c2.02513,0.41899 7.61169,1.5363 12.43009,0.69832c4.81841,-0.83799 9.00833,-1.9553 10.68429,-3.21228c1.67597,-1.25697 2.30446,-1.81563 2.30446,-1.88546c0,-0.06983 -1.25698,4.46925 -3.21227,6.7737c-1.9553,2.30446 -5.79606,5.0279 -7.05303,5.16757c-1.25698,0.13966 -2.93294,0.76815 -6.00555,0.62849c-3.07261,-0.13967 -5.4469,-0.62849 -9.00833,-2.58379c-3.56143,-1.95529 -7.19269,-7.82118 -6.70387,-7.75135z" id="svg_94"/>
 </g>
</svg>